# xmcd
#
# Track frame offsets:
#	150
#	16344
#	40159
#	52895
#	64949
#	77345
#	89449
#	101310
#	116166
#	135074
#	148191
#	160491
#	173864
#	188777
#	199313
#	209944
#	222396
#	239759
#	256078
#	274995
#
# Disc length: 3886 seconds
#
# Revision: 1
# Processed by: cddbd v1.5.2PL0 Copyright (c) Steve Scherf et al.
# Submitted via: audiograbber 1.83.01
#
DISCID=2a0f2c14
DTITLE=Various Artist - Metro TV Best Country Songs
DYEAR=1900
DGENRE=Country
TTITLE0=Willie Nelson - Always On My Mind
TTITLE1=Dolly Parton - You Are
TTITLE2=Roy Orbison - Crying
TTITLE3=Skeeter Davis - The End Of The World
TTITLE4=Elvis Presley - Love Me Tender
TTITLE5=Tammy Wynette - Stand By Your Man
TTITLE6=The Everly Brothers - Let It Be Me
TTITLE7=Dan Fogelberg - Longer
TTITLE8=Lobo - I'd Love You To Want Me
TTITLE9=Lynn Anderson - Rose Garden
TTITLE10=Charlie Rich - The Most Beautiful Girl
TTITLE11=Mickey Gilley - True Love Ways
TTITLE12=George Jones - He Stopped Loving Her Today
TTITLE13=Kris Kristofferson - Help Me Make It Through The Night
TTITLE14=Jim Reeves - He'll Have To Go
TTITLE15=Nilsson - Everbody's Talkin'
TTITLE16=Dr. Hook - Sylvia's Mother
TTITLE17=Alabama - Feels So Right
TTITLE18=John Denver - Fly Away
TTITLE19=Ronnie Milsap - Any Day Now
EXTD=
EXTT0=
EXTT1=
EXTT2=
EXTT3=
EXTT4=
EXTT5=
EXTT6=
EXTT7=
EXTT8=
EXTT9=
EXTT10=
EXTT11=
EXTT12=
EXTT13=
EXTT14=
EXTT15=
EXTT16=
EXTT17=
EXTT18=
EXTT19=
PLAYORDER=
